<svg width="96" height="96" viewBox="0 0 96 96" fill="none" xmlns="http://www.w3.org/2000/svg">
  <rect x="4" y="4" width="88" height="88" rx="28" fill="url(#bg)"/>
  <rect x="4.5" y="4.5" width="87" height="87" rx="27.5" stroke="url(#stroke)" stroke-opacity="0.7"/>
  <path d="M26 64V32H44C52.8366 32 60 39.1634 60 48C60 56.8366 52.8366 64 44 64H26Z" fill="url(#left)"/>
  <path d="M44 32H52C62.4934 32 71 40.5066 71 51C71 61.4934 62.4934 70 52 70H44V32Z" fill="url(#right)"/>
  <path d="M35 41H44C47.866 41 51 44.134 51 48C51 51.866 47.866 55 44 55H35V41Z" fill="#08101E" fill-opacity="0.92"/>
  <circle cx="69" cy="27" r="4" fill="#8DE1FF"/>
  <circle cx="69" cy="27" r="9" fill="#8DE1FF" fill-opacity="0.15"/>
  <defs>
    <linearGradient id="bg" x1="10" y1="8" x2="86" y2="88" gradientUnits="userSpaceOnUse">
      <stop stop-color="#0F1A31"/>
      <stop offset="1" stop-color="#0A1325"/>
    </linearGradient>
    <linearGradient id="stroke" x1="12" y1="10" x2="87" y2="87" gradientUnits="userSpaceOnUse">
      <stop stop-color="#7CA2FF"/>
      <stop offset="1" stop-color="#6FD8FF"/>
    </linearGradient>
    <linearGradient id="left" x1="26" y1="32" x2="58" y2="64" gradientUnits="userSpaceOnUse">
      <stop stop-color="#9CB7FF"/>
      <stop offset="1" stop-color="#74E0FF"/>
    </linearGradient>
    <linearGradient id="right" x1="44" y1="32" x2="71" y2="70" gradientUnits="userSpaceOnUse">
      <stop stop-color="#5C89FF"/>
      <stop offset="1" stop-color="#6FD8FF"/>
    </linearGradient>
  </defs>
</svg>
